<svg xmlns="http://www.w3.org/2000/svg" xmlns:xlink="http://www.w3.org/1999/xlink" viewBox="0 0 121.1 126.24"><defs><linearGradient id="Naranja_amarillo" x1="70.6" y1="12.6" x2="121.1" y2="12.6" gradientUnits="userSpaceOnUse"><stop offset="0" stop-color="#ffef26"/><stop offset="0.02" stop-color="#ffea21"/><stop offset="0.1" stop-color="#fed70f"/><stop offset="0.19" stop-color="#fdcc04"/><stop offset="0.28" stop-color="#fdc800"/><stop offset="0.67" stop-color="#f18f34"/><stop offset="0.89" stop-color="#e95f32"/><stop offset="1" stop-color="#e3312d"/></linearGradient></defs><title>Recurso 49</title><g id="Capa_2" data-name="Capa 2"><g id="Capa_1-2" data-name="Capa 1"><path d="M99.3,93a10.25,10.25,0,0,1-5,5.21,18.36,18.36,0,0,1-8.45,1.86,22.05,22.05,0,0,1-10.25-2.15,18.82,18.82,0,0,1-6.7-5.65,23.12,23.12,0,0,1-3.7-8.1A38.41,38.41,0,0,1,64,74.79a23.75,23.75,0,0,1,1.7-9.15,25.53,25.53,0,0,1,4.6-8.1,20.79,20.79,0,0,1,6.8-5.2,19.4,19.4,0,0,1,8.4-1.85q9.19,0,13.8,7.4v-7.4h13v53a23.84,23.84,0,0,1-1.9,9.85,20,20,0,0,1-5.2,7.1,22.82,22.82,0,0,1-7.8,4.35,31.55,31.55,0,0,1-19.1,0,22.47,22.47,0,0,1-7.55-4.14,19.06,19.06,0,0,1-5-6.48,20,20,0,0,1-1.8-8.62H76a8.52,8.52,0,0,0,3,6.95,12,12,0,0,0,7.89,2.45,13.84,13.84,0,0,0,8.84-2.84,9.33,9.33,0,0,0,3.61-7.74ZM88.6,89.79a10.08,10.08,0,0,0,8-3.63q3.15-3.64,3.15-9.92,0-15.75-11.1-15.75T77.5,75.44q0,6.59,3.15,10.47A9.81,9.81,0,0,0,88.6,89.79Z" style="fill:#fff"/><path d="M43,100.12h15.1L38.19,43.53a14.72,14.72,0,0,0-13.86-9.81h-5.7L.51,84.48c-3.5,12.68,11.84,17.2,17.72,17.2a27,27,0,0,0,9.88-1.74c10.53-4.13,10.53-13.52,10.53-13.52L34.49,73.48c.35,1.1.37,1.44.24,5.75A13,13,0,0,1,32,86.48a13.23,13.23,0,0,1-10.52,4.76c-8.61,0-6.52-6.76-6.52-6.76L26.53,48.62Z" style="fill:#fff"/><path d="M20.1,21.67h0l20.58-12,4.67,8.15L29,24.7A7,7,0,0,1,20.1,21.67Z" style="fill:#fff"/><rect x="70.6" width="50.5" height="25.19" style="fill:url(#Naranja_amarillo)"/></g></g></svg>